<?xml version="1.0" encoding="utf-8"?>
<!-- Generator: Adobe Illustrator 23.0.3, SVG Export Plug-In . SVG Version: 6.00 Build 0)  -->
<svg version="1.1" xmlns="http://www.w3.org/2000/svg" xmlns:xlink="http://www.w3.org/1999/xlink" x="0px" y="0px" width="248px"
	 height="425px" viewBox="0 0 248 425" style="enable-background:new 0 0 248 425;" xml:space="preserve">
<style type="text/css">
	.st0{fill:url(#SVGID_1_);}
	.st1{fill:#1A2A57;}
	.st2{fill:#FFFFFF;}
	.st3{opacity:0.7;}
	.st4{fill:url(#SVGID_2_);}
	.st5{fill:url(#SVGID_3_);}
	.st6{fill:url(#SVGID_4_);}
	.st7{opacity:0.75;}
	.st8{fill:url(#SVGID_5_);}
	.st9{fill:none;}
	.st10{opacity:5.000000e-02;fill:#007897;}
	.st11{fill:#007897;}
	.st12{fill:#0E617E;}
	.st13{fill:none;stroke:#16487D;stroke-miterlimit:10;}
	.st14{fill:#16487D;}
	.st15{fill:none;stroke:#E6E6E6;stroke-miterlimit:10;}
	.st16{opacity:0.1;}
	.st17{opacity:5.000000e-02;}
	.st18{display:none;opacity:0.1;}
	.st19{display:none;opacity:5.000000e-02;}
	.st20{fill:#1A2A57;stroke:#1A2A57;stroke-miterlimit:10;}
	.st21{fill:#007897;stroke:#007897;stroke-miterlimit:10;}
	.st22{fill:#1A2A57;stroke:#1A2A57;stroke-linejoin:round;stroke-miterlimit:10;}
	.st23{fill:#22BBAD;stroke:#22BBAD;stroke-width:2;stroke-miterlimit:10;}
	.st24{fill:#22BBAD;stroke:#22BBAD;stroke-miterlimit:10;}
	.st25{fill:none;stroke:#0E617E;stroke-width:0.5;stroke-miterlimit:10;}
</style>
<g id="background">
	<g id="XMLID_5_">
		<g>
		</g>
	</g>
	<g class="st7">
		<path class="st9" d="M-6,481h254v-58.3l-0.2,0.3l-77-133.6H248v-7h-77.6l77-133.6l0.6,1.1v-16.5l-0.3,0.4l-77-133.6H248V0
			 M241.6,137.7H87.6l77-133.6L241.6,137.7z M4.4,0.1h154.1l-77,133.6L4.4,0.1z M87.2,144.7h154.1l-77,133.6L87.2,144.7z"/>
		<polygon class="st2" points="247.8,423 248,422.7 248,289.4 170.8,289.4 		"/>
		<polygon class="st2" points="170.4,282.4 248,282.4 248,149.8 247.4,148.7 		"/>
		<polygon class="st2" points="87.2,144.7 164.2,278.4 241.3,144.7 		"/>
		<polygon class="st2" points="247.7,133.7 248,133.3 248,0.1 170.7,0.1 		"/>
		<polygon class="st2" points="241.6,137.7 164.6,4.1 87.6,137.7 		"/>
		<polygon class="st2" points="4.4,0.1 81.4,133.7 158.5,0.1 		"/>
	</g>
</g>
<g id="Layer_1">
</g>
</svg>
