<?xml version="1.0" encoding="utf-8"?>
<!-- Generator: Adobe Illustrator 23.0.3, SVG Export Plug-In . SVG Version: 6.00 Build 0)  -->
<svg version="1.1" xmlns="http://www.w3.org/2000/svg" xmlns:xlink="http://www.w3.org/1999/xlink" x="0px" y="0px" width="13.7px"
	 height="15.6px" viewBox="0 0 13.7 15.6" style="enable-background:new 0 0 13.7 15.6;" xml:space="preserve">
<style type="text/css">
	.st0{fill:url(#SVGID_1_);}
	.st1{fill:#1A2A57;}
	.st2{fill:#FFFFFF;}
	.st3{opacity:0.7;}
	.st4{fill:url(#SVGID_2_);}
	.st5{fill:url(#SVGID_3_);}
	.st6{fill:url(#SVGID_4_);}
	.st7{opacity:0.75;}
	.st8{fill:url(#SVGID_5_);}
	.st9{fill:none;}
	.st10{opacity:5.000000e-02;fill:#007897;}
	.st11{fill:#007897;}
	.st12{fill:#0E617E;}
	.st13{fill:none;stroke:#16487D;stroke-miterlimit:10;}
	.st14{fill:#16487D;}
	.st15{fill:none;stroke:#E6E6E6;stroke-miterlimit:10;}
	.st16{opacity:0.1;}
	.st17{opacity:5.000000e-02;}
	.st18{display:none;opacity:0.1;}
	.st19{display:none;opacity:5.000000e-02;}
	.st20{fill:#1A2A57;stroke:#1A2A57;stroke-miterlimit:10;}
	.st21{fill:#007897;stroke:#007897;stroke-miterlimit:10;}
	.st22{fill:#1A2A57;stroke:#1A2A57;stroke-linejoin:round;stroke-miterlimit:10;}
	.st23{fill:#22BBAD;stroke:#22BBAD;stroke-width:2;stroke-miterlimit:10;}
	.st24{fill:#22BBAD;stroke:#22BBAD;stroke-miterlimit:10;}
	.st25{fill:none;stroke:#0E617E;stroke-width:0.5;stroke-miterlimit:10;}
</style>
<g id="background">
</g>
<g id="Layer_1">
	<g>
		<path class="st12" d="M12.5,11L12.5,11c-0.2-0.2-0.9-0.6-3.3-1.7L9,9.3l0.1-0.1C9.2,9.1,9.2,9,9.3,9C9,9,8.7,9,8.2,8.8
			c-0.5,0.4-1,0.7-1.4,0.7C6,9.5,4.6,8.4,4.3,6.5C4.2,5.9,4.1,4.1,5,3c0.4-0.5,1-0.8,1.9-0.8S8.3,2.5,8.7,3c0.9,1.1,0.8,2.9,0.7,3.5
			c0,0.2-0.1,0.4-0.1,0.6c0.3,0,0.6-0.1,1-0.4c0,0,0,0,0-0.1c0.2-0.9,0.2-2.9-0.9-4.2C8.8,1.7,7.9,1.3,6.9,1.3
			C5.8,1.3,5,1.7,4.3,2.4C3.3,3.7,3.3,5.7,3.4,6.6c0.2,1,0.6,1.9,1.2,2.6l0.1,0.1L4.6,9.3c-2.4,1.1-3.1,1.5-3.3,1.7
			C0,12.1,0,14.1,0,14.2l0,0.1c0,0.1,0.1,0.2,0.2,0.3l0.1,0c0.1,0,3.4,1,6.5,1c3.1,0,6.4-0.9,6.5-1l0.1,0c0.1,0,0.2-0.1,0.2-0.3
			l0-0.1C13.7,14.1,13.8,12.1,12.5,11z M12.8,13.9c-1,0.2-3.5,0.8-5.9,0.8c-2.4,0-4.9-0.6-5.9-0.8l-0.1,0l0-0.1
			c0.1-0.6,0.2-1.6,0.9-2.1l0.1-0.1c0.3-0.2,2-1,3.5-1.7l0,0l0,0c0.5,0.3,1,0.5,1.4,0.5c0.4,0,0.9-0.2,1.4-0.5l0,0l0,0
			c1.5,0.7,3.2,1.5,3.5,1.7l0.1,0.1c0.7,0.6,0.9,1.6,0.9,2.1L12.8,13.9L12.8,13.9z"/>
		<path class="st12" d="M2.8,7.4c0,0,0.1,0,0.1,0l0.4,0L3.2,7C3.1,5.5,3.1,4.4,3.1,4.4l0-0.4l0,0c0-0.5,0.2-1.5,0.9-2.2
			c0.6-0.7,1.6-1,2.9-1s2.2,0.3,2.9,1c0.7,0.8,0.9,1.7,0.9,2.2l0,0l0,0.4c0,0,0,1.1-0.2,2.6c0,0-0.1,0.3-0.4,0.5
			c-0.3,0.2-1,0.3-2.3,0C7.7,7.3,7.5,7.1,7.2,7.1c-0.3,0-0.6,0.3-0.6,0.6s0.3,0.6,0.6,0.6c0.1,0,0.2,0,0.2-0.1
			c0.6,0.2,1.1,0.3,1.6,0.3c0.5,0,1-0.1,1.3-0.3c0.4-0.2,0.6-0.5,0.7-0.7c0.6-0.1,1.5-0.4,1.6-1.5c0-0.6-0.1-1.1-0.4-1.4
			C12,4.2,11.7,4.1,11.4,4c0-0.6-0.2-1.8-1.1-2.8C9.5,0.4,8.3,0,6.9,0S4.2,0.4,3.4,1.3C2.5,2.2,2.4,3.4,2.3,4
			c-0.3,0-0.6,0.1-0.9,0.4C1.1,4.8,1,5.3,1,5.9C1.1,7.1,2.1,7.4,2.8,7.4z M7.2,7.7C7.2,7.7,7.2,7.7,7.2,7.7C7.2,7.7,7.2,7.7,7.2,7.7
			C7.2,7.7,7.2,7.7,7.2,7.7z M11.4,4.8c0.1,0,0.2,0.1,0.3,0.2c0.2,0.2,0.2,0.4,0.2,0.8c0,0.5-0.4,0.7-0.6,0.8
			C11.4,5.8,11.4,5.2,11.4,4.8z M2,5c0.1-0.1,0.2-0.2,0.3-0.2c0,0.4,0,1,0.1,1.8C2.1,6.5,1.8,6.3,1.8,5.8C1.8,5.5,1.8,5.2,2,5z"/>
	</g>
</g>
</svg>
